<svg height="512" viewBox="0 0 64 64" width="512" xmlns="http://www.w3.org/2000/svg"><g id="Clip"><path d="m38.243 17.444-26.87 26.87a10 10 0 0 0 0 14.142 10 10 0 0 0 14.142 0l31.112-31.113a14 14 0 0 0 0-19.8 14 14 0 0 0 -19.8 0l-21.212 21.214 2.829 2.829 21.213-21.213a10 10 0 0 1 14.143 14.142l-31.114 31.112a6 6 0 0 1 -8.486-8.485l26.87-26.87a2 2 0 0 1 2.83 2.828l-16.971 16.971 2.828 2.829 16.971-16.97a6 6 0 0 0 0-8.485 6 6 0 0 0 -8.485-.001z" fill="#d80027"/><g fill="#bd0022"><path d="m44.108 15.938a5.908 5.908 0 0 1 .62.506 6 6 0 0 1 0 8.485l-16.471 16.471 1.5 1.5 16.971-16.97a6 6 0 0 0 0-8.485 5.936 5.936 0 0 0 -2.62-1.507z"/><path d="m14.2 55.627a6 6 0 0 1 0-8.485l26.87-26.87a1.977 1.977 0 0 1 1.151-.56 1.977 1.977 0 0 0 -.323-.44 2 2 0 0 0 -2.828 0l-26.87 26.87a6 6 0 0 0 0 8.485 5.936 5.936 0 0 0 2.62 1.506 5.908 5.908 0 0 1 -.62-.506z"/><path d="m37.657 9.373-20.713 20.713 1.5 1.5 21.213-21.213a9.993 9.993 0 0 1 10.543-2.298 10 10 0 0 0 -12.543 1.298z"/><path d="m56.627 7.544a13.944 13.944 0 0 0 -4.727-3.111 13.988 13.988 0 0 1 2.732 2.111 14 14 0 0 1 0 19.8l-31.117 31.112a10 10 0 0 1 -10.547 2.3 10 10 0 0 0 12.547-1.3l31.112-31.113a14 14 0 0 0 0-19.799z"/></g><path d="m18.443 62.385a11 11 0 0 1 -7.777-18.779l26.87-26.869a7 7 0 0 1 9.9 9.9l-17.679 17.676-4.242-4.242 17.677-17.677a1 1 0 0 0 0-1.415 1.025 1.025 0 0 0 -1.414 0l-26.87 26.87a5 5 0 1 0 7.071 7.071l31.113-31.112a9 9 0 1 0 -12.728-12.728l-21.92 21.92-4.244-4.243 21.922-21.92a15 15 0 0 1 21.212 21.213l-31.112 31.113a10.928 10.928 0 0 1 -7.779 3.222zm24.042-45.7a4.981 4.981 0 0 0 -3.535 1.462l-26.87 26.874a9 9 0 0 0 12.728 12.728l31.112-31.113a13 13 0 1 0 -18.384-18.385l-20.507 20.506 1.415 1.415 20.506-20.506a11 11 0 1 1 15.556 15.556l-31.112 31.112a7 7 0 0 1 -9.9-9.9l26.87-26.87a3 3 0 0 1 4.242 4.243l-16.263 16.264 1.414 1.414 16.264-16.263a5 5 0 0 0 -3.536-8.533z"/></g></svg>