<?xml version="1.0" standalone="no"?>
<!DOCTYPE svg PUBLIC "-//W3C//DTD SVG 20010904//EN"
 "http://www.w3.org/TR/2001/REC-SVG-20010904/DTD/svg10.dtd">
<svg version="1.0" xmlns="http://www.w3.org/2000/svg"
 width="1577.000000pt" height="1577.000000pt" viewBox="0 0 1577.000000 1577.000000"
 preserveAspectRatio="xMidYMid meet">
<metadata>
Created by potrace 1.11, written by Peter Selinger 2001-2013
</metadata>
<g transform="translate(0.000000,1577.000000) scale(0.100000,-0.100000)"
fill="#000000" stroke="none">
<path d="M7757 15734 c-1 -1 -92 -5 -202 -9 -110 -4 -218 -8 -240 -10 -22 -2
-76 -6 -120 -9 -88 -7 -169 -15 -200 -21 -11 -2 -23 -4 -26 -4 -3 -1 -2 -29 2
-63 4 -35 10 -94 14 -133 7 -68 10 -98 20 -187 2 -24 9 -92 15 -153 11 -110
18 -174 25 -230 2 -16 7 -59 10 -95 11 -135 25 -228 45 -320 6 -25 12 -54 14
-65 3 -11 9 -40 15 -65 5 -24 9 -46 7 -47 -2 -2 -21 -6 -43 -9 l-39 -5 -23
183 c-12 101 -25 201 -27 223 -3 22 -7 51 -8 65 -2 14 -10 74 -17 134 l-13
107 -165 159 c-92 87 -191 181 -221 210 -30 28 -91 87 -135 130 l-81 78 -44
-8 c-25 -5 -62 -11 -83 -14 -29 -5 -274 -57 -377 -81 -173 -41 -792 -230 -819
-251 -5 -5 35 -125 159 -474 29 -80 56 -156 60 -170 17 -52 131 -374 133 -375
1 -1 31 -18 67 -37 240 -130 325 -180 335 -197 5 -9 22 -56 36 -106 15 -49 66
-218 114 -374 47 -156 85 -284 83 -285 -2 -1 -65 -22 -140 -46 -76 -24 -138
-46 -138 -49 0 -4 12 -38 26 -76 40 -109 74 -208 71 -210 -35 -16 -81 -35
-222 -90 -154 -61 -193 -77 -290 -120 -16 -7 -59 -25 -95 -40 -36 -15 -78 -33
-95 -40 -193 -86 -414 -118 -545 -79 -76 22 -154 68 -190 112 -67 81 -73 218
-16 359 42 102 14 153 -85 153 -10 0 -44 -10 -75 -21 -69 -26 -184 -134 -231
-217 l-31 -53 -21 35 c-34 54 -126 132 -194 165 -199 94 -421 34 -564 -154
-39 -51 -89 -159 -99 -210 -5 -27 -19 -51 -44 -75 -52 -50 -179 -162 -220
-196 -19 -16 -37 -31 -40 -35 -3 -3 -34 -27 -70 -54 -89 -65 -205 -120 -298
-140 -188 -41 -256 -74 -345 -169 -26 -28 -64 -84 -84 -125 -30 -61 -36 -88
-41 -157 -6 -102 10 -189 49 -269 67 -140 178 -205 349 -207 111 -2 168 23
269 118 74 69 139 119 146 112 11 -11 87 -517 109 -728 10 -93 17 -156 21
-185 2 -16 7 -66 10 -110 4 -44 9 -93 11 -110 1 -16 6 -68 9 -115 4 -47 8 -98
10 -115 4 -25 8 -81 19 -257 3 -42 8 -44 -86 24 -110 80 -170 175 -184 291
l-7 59 -31 -6 c-82 -17 -188 -121 -202 -200 -13 -73 -5 -126 30 -199 l25 -52
-22 -9 c-74 -29 -117 -62 -152 -116 -98 -156 -1 -384 170 -402 101 -11 195 68
198 167 1 25 5 45 10 45 4 0 28 -19 53 -42 44 -41 85 -101 98 -144 6 -19 3
-20 -46 -17 -65 4 -119 -23 -160 -82 -33 -48 -47 -102 -26 -102 30 0 111 -47
149 -86 79 -83 99 -208 54 -335 -13 -35 -26 -66 -29 -69 -14 -15 -85 120 -130
247 -67 188 -182 272 -367 266 -74 -2 -96 -7 -150 -34 -149 -73 -230 -214
-223 -387 9 -234 143 -404 374 -475 56 -17 78 -36 149 -130 110 -147 175 -269
206 -389 9 -36 30 -94 46 -130 27 -58 28 -68 17 -100 -6 -20 -12 -72 -12 -116
1 -105 36 -186 123 -279 34 -37 60 -70 58 -74 -3 -4 -8 -41 -11 -83 -3 -42 -8
-83 -10 -90 -3 -8 -8 -30 -11 -49 -3 -19 -10 -53 -15 -75 -6 -22 -13 -48 -15
-58 -17 -71 -150 -434 -200 -542 -88 -194 -158 -393 -179 -508 -28 -156 -29
-537 -2 -687 3 -14 9 -56 15 -95 12 -80 18 -110 25 -133 3 -10 8 -31 11 -47
12 -77 59 -245 99 -355 9 -25 24 -65 32 -90 18 -52 121 -264 159 -330 40 -68
128 -180 182 -232 26 -25 71 -86 98 -134 34 -60 77 -115 135 -173 152 -153
274 -266 325 -301 27 -19 75 -61 106 -95 56 -60 195 -161 254 -186 17 -7 50
-33 75 -59 68 -69 236 -200 257 -200 3 0 14 -6 22 -14 28 -26 271 -143 436
-211 88 -36 169 -69 180 -74 11 -5 103 -44 205 -86 701 -293 1106 -542 1425
-875 138 -144 246 -294 335 -465 29 -55 54 -102 56 -104 2 -3 17 7 32 21 58
55 227 138 251 124 5 -3 12 -23 16 -43 8 -47 76 -177 118 -227 l32 -37 46 43
c25 24 55 56 66 73 l21 29 11 -44 c35 -136 128 -297 223 -385 66 -61 152 -115
184 -115 55 0 211 132 282 238 60 90 122 235 122 284 0 12 22 -4 71 -54 l71
-72 19 24 c43 55 111 178 127 232 9 32 21 58 25 58 5 0 39 -12 75 -26 66 -27
135 -67 181 -108 16 -14 25 -17 28 -9 16 44 104 203 157 283 248 371 618 665
1201 949 226 111 221 109 405 186 74 31 149 62 165 70 17 7 93 38 170 70 389
156 616 284 778 435 43 40 92 80 110 89 95 50 179 111 249 183 31 32 90 84
130 115 40 31 103 86 139 122 37 36 95 92 130 124 70 63 137 148 191 242 19
33 67 93 107 132 104 106 207 272 302 488 96 217 196 623 217 875 13 167 5
541 -14 571 -2 4 -6 24 -10 45 -3 20 -9 47 -14 58 -4 12 -8 26 -9 31 -5 36
-29 103 -78 218 -189 449 -278 700 -298 837 -4 24 -8 47 -10 50 -1 3 -6 38
-10 77 -4 40 -8 81 -9 90 -2 11 21 44 55 81 61 65 103 136 116 194 13 63 8
166 -12 211 -4 10 1 34 14 62 12 25 31 76 42 113 38 121 62 187 79 212 9 14
20 33 23 43 12 33 131 199 177 249 25 26 56 50 70 52 76 12 197 81 263 150
167 175 175 485 17 644 -95 95 -258 137 -381 97 -122 -39 -194 -114 -248 -260
-33 -92 -78 -189 -104 -225 -22 -31 -29 -23 -58 74 -26 83 -22 182 11 246 29
57 94 115 157 141 62 25 65 36 24 101 -44 70 -84 93 -158 93 -36 0 -63 4 -63
10 0 6 13 33 30 61 27 49 118 140 128 129 3 -2 6 -23 8 -46 12 -128 160 -202
276 -138 117 65 166 234 104 356 -30 61 -91 115 -147 132 -22 7 -39 15 -37 19
31 58 51 114 57 157 15 107 -39 206 -143 265 -67 39 -96 39 -97 3 -2 -71 -32
-155 -78 -217 -41 -55 -61 -73 -131 -122 -71 -49 -69 -49 -65 -7 4 35 8 99 21
278 2 39 6 88 9 110 2 22 7 74 10 115 3 41 8 86 10 100 3 14 7 61 10 105 3 44
8 87 10 95 2 8 7 46 11 85 3 38 7 77 9 86 2 9 6 40 9 70 4 30 9 72 12 94 3 22
7 51 9 65 6 45 20 141 30 200 10 64 38 215 41 218 6 8 48 -23 130 -99 132
-121 209 -149 357 -126 196 29 311 174 324 408 5 81 2 106 -16 161 -28 85 -71
151 -137 213 -70 67 -144 102 -256 125 -103 21 -153 37 -219 70 -46 24 -190
118 -199 131 -3 4 -22 21 -44 38 -21 17 -59 50 -85 73 -26 24 -75 67 -109 97
-52 46 -64 62 -77 110 -96 333 -395 491 -673 354 -62 -30 -137 -95 -177 -153
l-28 -41 -31 53 c-67 118 -221 238 -305 238 -101 0 -131 -59 -81 -166 41 -90
45 -222 8 -300 -35 -76 -128 -138 -244 -164 -47 -11 -207 -15 -222 -6 -4 2
-25 7 -46 10 -79 13 -285 91 -531 201 -16 7 -118 48 -225 91 -107 42 -197 78
-199 80 -2 2 15 57 38 121 68 188 66 169 13 184 -26 6 -51 15 -57 19 -5 3 -46
17 -90 30 -44 13 -81 25 -83 26 -4 2 15 66 113 384 32 102 71 231 88 288 l30
102 203 113 202 112 62 175 c35 96 80 225 102 285 22 61 52 146 68 190 15 44
51 144 78 221 l50 142 -57 21 c-162 59 -572 184 -709 216 -9 3 -35 9 -57 14
-192 48 -451 101 -490 101 -11 0 -49 -28 -85 -63 -36 -34 -137 -129 -225 -212
-87 -82 -193 -184 -235 -225 l-77 -75 -33 -270 c-18 -148 -35 -281 -37 -295
-1 -14 -6 -47 -9 -75 -3 -27 -8 -53 -11 -57 -4 -7 -72 -3 -79 5 -2 1 10 61 26
132 37 167 39 184 65 455 2 19 6 60 9 90 8 71 24 220 31 290 12 127 16 166 20
188 2 13 7 65 11 116 5 75 4 93 -7 93 -8 0 -43 3 -79 7 -36 3 -96 8 -135 11
-38 3 -92 8 -120 10 -102 10 -681 25 -688 19z"/>
</g>
</svg>
